<svg width="17" height="17" viewBox="0 0 17 17" fill="none" xmlns="http://www.w3.org/2000/svg">
<mask id="mask0_1339_3389" style="mask-type:alpha" maskUnits="userSpaceOnUse" x="0" y="0" width="17" height="17">
<rect x="0.526245" y="0.763916" width="16" height="16" fill="#D9D9D9"/>
</mask>
<g mask="url(#mask0_1339_3389)">
<path d="M4.42626 12.1638C4.99292 11.7305 5.62626 11.3888 6.32626 11.1388C7.02626 10.8888 7.75959 10.7638 8.52625 10.7638C9.29292 10.7638 10.0263 10.8888 10.7263 11.1388C11.4263 11.3888 12.0596 11.7305 12.6263 12.1638C13.0151 11.7083 13.3179 11.1916 13.5346 10.6138C13.7513 10.0361 13.8596 9.41939 13.8596 8.76383C13.8596 7.28606 13.3401 6.02772 12.3013 4.98883C11.2624 3.94995 10.004 3.4305 8.52625 3.4305C7.04848 3.4305 5.79014 3.94995 4.75126 4.98883C3.71237 6.02772 3.19292 7.28606 3.19292 8.76383C3.19292 9.41939 3.30126 10.0361 3.51792 10.6138C3.73459 11.1916 4.03737 11.7083 4.42626 12.1638ZM8.52625 9.4305C7.8707 9.4305 7.31792 9.2055 6.86792 8.7555C6.41792 8.3055 6.19292 7.75272 6.19292 7.09717C6.19292 6.44161 6.41792 5.88883 6.86792 5.43883C7.31792 4.98883 7.8707 4.76383 8.52625 4.76383C9.18181 4.76383 9.73459 4.98883 10.1846 5.43883C10.6346 5.88883 10.8596 6.44161 10.8596 7.09717C10.8596 7.75272 10.6346 8.3055 10.1846 8.7555C9.73459 9.2055 9.18181 9.4305 8.52625 9.4305ZM8.52625 15.4305C7.60403 15.4305 6.73737 15.2555 5.92625 14.9055C5.11514 14.5555 4.40959 14.0805 3.80959 13.4805C3.20959 12.8805 2.73459 12.1749 2.38459 11.3638C2.03459 10.5527 1.85959 9.68606 1.85959 8.76383C1.85959 7.84161 2.03459 6.97495 2.38459 6.16383C2.73459 5.35272 3.20959 4.64717 3.80959 4.04717C4.40959 3.44717 5.11514 2.97217 5.92625 2.62217C6.73737 2.27217 7.60403 2.09717 8.52625 2.09717C9.44848 2.09717 10.3151 2.27217 11.1263 2.62217C11.9374 2.97217 12.6429 3.44717 13.2429 4.04717C13.8429 4.64717 14.3179 5.35272 14.6679 6.16383C15.0179 6.97495 15.1929 7.84161 15.1929 8.76383C15.1929 9.68606 15.0179 10.5527 14.6679 11.3638C14.3179 12.1749 13.8429 12.8805 13.2429 13.4805C12.6429 14.0805 11.9374 14.5555 11.1263 14.9055C10.3151 15.2555 9.44848 15.4305 8.52625 15.4305ZM8.52625 14.0972C9.11514 14.0972 9.6707 14.0111 10.1929 13.8388C10.7151 13.6666 11.1929 13.4194 11.6263 13.0972C11.1929 12.7749 10.7151 12.5277 10.1929 12.3555C9.6707 12.1833 9.11514 12.0972 8.52625 12.0972C7.93737 12.0972 7.38181 12.1833 6.85959 12.3555C6.33737 12.5277 5.85959 12.7749 5.42625 13.0972C5.85959 13.4194 6.33737 13.6666 6.85959 13.8388C7.38181 14.0111 7.93737 14.0972 8.52625 14.0972ZM8.52625 8.09717C8.81514 8.09717 9.05403 8.00272 9.24292 7.81383C9.43181 7.62495 9.52625 7.38606 9.52625 7.09717C9.52625 6.80828 9.43181 6.56939 9.24292 6.3805C9.05403 6.19161 8.81514 6.09717 8.52625 6.09717C8.23737 6.09717 7.99848 6.19161 7.80959 6.3805C7.6207 6.56939 7.52626 6.80828 7.52626 7.09717C7.52626 7.38606 7.6207 7.62495 7.80959 7.81383C7.99848 8.00272 8.23737 8.09717 8.52625 8.09717Z" fill="#D9D9D9"/>
</g>
</svg>
