<svg width="17" height="17" viewBox="0 0 17 17" fill="none" xmlns="http://www.w3.org/2000/svg">
<mask id="mask0_1339_3394" style="mask-type:alpha" maskUnits="userSpaceOnUse" x="0" y="0" width="17" height="17">
<rect x="0.526245" y="0.763916" width="16" height="16" fill="#D9D9D9"/>
</mask>
<g mask="url(#mask0_1339_3394)">
<path d="M10.5263 16.0972H7.85959C7.6707 16.0972 7.51237 16.0333 7.38459 15.9055C7.25681 15.7777 7.19292 15.6194 7.19292 15.4305V11.4305C7.19292 11.2416 7.25681 11.0833 7.38459 10.9555C7.51237 10.8277 7.6707 10.7638 7.85959 10.7638H8.52626V8.76383H3.19292C2.82626 8.76383 2.51237 8.63328 2.25126 8.37217C1.99014 8.11106 1.85959 7.79717 1.85959 7.4305V4.76383C1.85959 4.39717 1.99014 4.08328 2.25126 3.82217C2.51237 3.56106 2.82626 3.4305 3.19292 3.4305H4.52626V2.76383C4.52626 2.57495 4.59014 2.41661 4.71792 2.28883C4.8457 2.16106 5.00403 2.09717 5.19292 2.09717H13.1929C13.3818 2.09717 13.5401 2.16106 13.6679 2.28883C13.7957 2.41661 13.8596 2.57495 13.8596 2.76383V5.4305C13.8596 5.61939 13.7957 5.77772 13.6679 5.9055C13.5401 6.03328 13.3818 6.09717 13.1929 6.09717H5.19292C5.00403 6.09717 4.8457 6.03328 4.71792 5.9055C4.59014 5.77772 4.52626 5.61939 4.52626 5.4305V4.76383H3.19292V7.4305H8.52626C8.89292 7.4305 9.20681 7.56106 9.46792 7.82217C9.72903 8.08328 9.85959 8.39717 9.85959 8.76383V10.7638H10.5263C10.7151 10.7638 10.8735 10.8277 11.0013 10.9555C11.129 11.0833 11.1929 11.2416 11.1929 11.4305V15.4305C11.1929 15.6194 11.129 15.7777 11.0013 15.9055C10.8735 16.0333 10.7151 16.0972 10.5263 16.0972ZM8.52626 14.7638H9.85959V12.0972H8.52626V14.7638ZM5.85959 4.76383H12.5263V3.4305H5.85959V4.76383Z" fill="#D9D9D9"/>
</g>
</svg>
