<svg width="17" height="17" viewBox="0 0 17 17" fill="none" xmlns="http://www.w3.org/2000/svg">
<mask id="mask0_1339_3399" style="mask-type:alpha" maskUnits="userSpaceOnUse" x="0" y="0" width="17" height="17">
<rect x="0.526245" y="0.763916" width="16" height="16" fill="#D9D9D9"/>
</mask>
<g mask="url(#mask0_1339_3399)">
<path d="M8.52625 15.4305C7.61514 15.4305 6.75403 15.2555 5.94292 14.9055C5.13181 14.5555 4.42348 14.0777 3.81792 13.4722C3.21237 12.8666 2.73459 12.1583 2.38459 11.3472C2.03459 10.5361 1.85959 9.67495 1.85959 8.76383C1.85959 7.84161 2.03459 6.97772 2.38459 6.17217C2.73459 5.36661 3.21237 4.66106 3.81792 4.0555C4.42348 3.44995 5.13181 2.97217 5.94292 2.62217C6.75403 2.27217 7.61514 2.09717 8.52625 2.09717C9.44848 2.09717 10.3124 2.27217 11.1179 2.62217C11.9235 2.97217 12.629 3.44995 13.2346 4.0555C13.8401 4.66106 14.3179 5.36661 14.6679 6.17217C15.0179 6.97772 15.1929 7.84161 15.1929 8.76383C15.1929 9.67495 15.0179 10.5361 14.6679 11.3472C14.3179 12.1583 13.8401 12.8666 13.2346 13.4722C12.629 14.0777 11.9235 14.5555 11.1179 14.9055C10.3124 15.2555 9.44848 15.4305 8.52625 15.4305ZM8.52625 14.0638C8.81514 13.6638 9.06514 13.2472 9.27625 12.8138C9.48737 12.3805 9.65959 11.9194 9.79292 11.4305H7.25959C7.39292 11.9194 7.56514 12.3805 7.77626 12.8138C7.98737 13.2472 8.23737 13.6638 8.52625 14.0638ZM6.79292 13.7972C6.59292 13.4305 6.41792 13.0499 6.26792 12.6555C6.11792 12.2611 5.99292 11.8527 5.89292 11.4305H3.92626C4.24848 11.9861 4.65126 12.4694 5.13459 12.8805C5.61792 13.2916 6.1707 13.5972 6.79292 13.7972ZM10.2596 13.7972C10.8818 13.5972 11.4346 13.2916 11.9179 12.8805C12.4013 12.4694 12.804 11.9861 13.1263 11.4305H11.1596C11.0596 11.8527 10.9346 12.2611 10.7846 12.6555C10.6346 13.0499 10.4596 13.4305 10.2596 13.7972ZM3.35959 10.0972H5.62626C5.59292 9.87495 5.56792 9.6555 5.55125 9.43883C5.53459 9.22217 5.52626 8.99717 5.52626 8.76383C5.52626 8.5305 5.53459 8.3055 5.55125 8.08883C5.56792 7.87217 5.59292 7.65272 5.62626 7.4305H3.35959C3.30403 7.65272 3.26237 7.87217 3.23459 8.08883C3.20681 8.3055 3.19292 8.5305 3.19292 8.76383C3.19292 8.99717 3.20681 9.22217 3.23459 9.43883C3.26237 9.6555 3.30403 9.87495 3.35959 10.0972ZM6.95959 10.0972H10.0929C10.1263 9.87495 10.1513 9.6555 10.1679 9.43883C10.1846 9.22217 10.1929 8.99717 10.1929 8.76383C10.1929 8.5305 10.1846 8.3055 10.1679 8.08883C10.1513 7.87217 10.1263 7.65272 10.0929 7.4305H6.95959C6.92626 7.65272 6.90126 7.87217 6.88459 8.08883C6.86792 8.3055 6.85959 8.5305 6.85959 8.76383C6.85959 8.99717 6.86792 9.22217 6.88459 9.43883C6.90126 9.6555 6.92626 9.87495 6.95959 10.0972ZM11.4263 10.0972H13.6929C13.7485 9.87495 13.7901 9.6555 13.8179 9.43883C13.8457 9.22217 13.8596 8.99717 13.8596 8.76383C13.8596 8.5305 13.8457 8.3055 13.8179 8.08883C13.7901 7.87217 13.7485 7.65272 13.6929 7.4305H11.4263C11.4596 7.65272 11.4846 7.87217 11.5013 8.08883C11.5179 8.3055 11.5263 8.5305 11.5263 8.76383C11.5263 8.99717 11.5179 9.22217 11.5013 9.43883C11.4846 9.6555 11.4596 9.87495 11.4263 10.0972ZM11.1596 6.09717H13.1263C12.804 5.54161 12.4013 5.05828 11.9179 4.64717C11.4346 4.23606 10.8818 3.9305 10.2596 3.7305C10.4596 4.09717 10.6346 4.47772 10.7846 4.87217C10.9346 5.26661 11.0596 5.67495 11.1596 6.09717ZM7.25959 6.09717H9.79292C9.65959 5.60828 9.48737 5.14717 9.27625 4.71383C9.06514 4.2805 8.81514 3.86383 8.52625 3.46383C8.23737 3.86383 7.98737 4.2805 7.77626 4.71383C7.56514 5.14717 7.39292 5.60828 7.25959 6.09717ZM3.92626 6.09717H5.89292C5.99292 5.67495 6.11792 5.26661 6.26792 4.87217C6.41792 4.47772 6.59292 4.09717 6.79292 3.7305C6.1707 3.9305 5.61792 4.23606 5.13459 4.64717C4.65126 5.05828 4.24848 5.54161 3.92626 6.09717Z" fill="#D9D9D9"/>
</g>
</svg>
