<svg width="15" height="15" viewBox="0 0 15 15" fill="none" xmlns="http://www.w3.org/2000/svg">
<mask id="mask0_342_414" style="mask-type:alpha" maskUnits="userSpaceOnUse" x="0" y="0" width="15" height="15">
<rect x="0.625" y="0.5" width="14" height="14" fill="#D9D9D9"/>
</mask>
<g mask="url(#mask0_342_414)">
<path d="M3.54167 13.3332C3.22083 13.3332 2.94618 13.2189 2.71771 12.9905C2.48924 12.762 2.375 12.4873 2.375 12.1665V3.99984C2.375 3.679 2.48924 3.40435 2.71771 3.17588C2.94618 2.94741 3.22083 2.83317 3.54167 2.83317H4.125V1.6665H5.29167V2.83317H9.95833V1.6665H11.125V2.83317H11.7083C12.0292 2.83317 12.3038 2.94741 12.5323 3.17588C12.7608 3.40435 12.875 3.679 12.875 3.99984V12.1665C12.875 12.4873 12.7608 12.762 12.5323 12.9905C12.3038 13.2189 12.0292 13.3332 11.7083 13.3332H3.54167ZM3.54167 12.1665H11.7083V6.33317H3.54167V12.1665ZM3.54167 5.1665H11.7083V3.99984H3.54167V5.1665ZM7.625 8.6665C7.45972 8.6665 7.32118 8.6106 7.20937 8.4988C7.09757 8.38699 7.04167 8.24845 7.04167 8.08317C7.04167 7.91789 7.09757 7.77935 7.20937 7.66755C7.32118 7.55574 7.45972 7.49984 7.625 7.49984C7.79028 7.49984 7.92882 7.55574 8.04063 7.66755C8.15243 7.77935 8.20833 7.91789 8.20833 8.08317C8.20833 8.24845 8.15243 8.38699 8.04063 8.4988C7.92882 8.6106 7.79028 8.6665 7.625 8.6665ZM5.29167 8.6665C5.12639 8.6665 4.98785 8.6106 4.87604 8.4988C4.76424 8.38699 4.70833 8.24845 4.70833 8.08317C4.70833 7.91789 4.76424 7.77935 4.87604 7.66755C4.98785 7.55574 5.12639 7.49984 5.29167 7.49984C5.45694 7.49984 5.59549 7.55574 5.70729 7.66755C5.8191 7.77935 5.875 7.91789 5.875 8.08317C5.875 8.24845 5.8191 8.38699 5.70729 8.4988C5.59549 8.6106 5.45694 8.6665 5.29167 8.6665ZM9.95833 8.6665C9.79306 8.6665 9.65451 8.6106 9.54271 8.4988C9.4309 8.38699 9.375 8.24845 9.375 8.08317C9.375 7.91789 9.4309 7.77935 9.54271 7.66755C9.65451 7.55574 9.79306 7.49984 9.95833 7.49984C10.1236 7.49984 10.2622 7.55574 10.374 7.66755C10.4858 7.77935 10.5417 7.91789 10.5417 8.08317C10.5417 8.24845 10.4858 8.38699 10.374 8.4988C10.2622 8.6106 10.1236 8.6665 9.95833 8.6665ZM7.625 10.9998C7.45972 10.9998 7.32118 10.9439 7.20937 10.8321C7.09757 10.7203 7.04167 10.5818 7.04167 10.4165C7.04167 10.2512 7.09757 10.1127 7.20937 10.0009C7.32118 9.88907 7.45972 9.83317 7.625 9.83317C7.79028 9.83317 7.92882 9.88907 8.04063 10.0009C8.15243 10.1127 8.20833 10.2512 8.20833 10.4165C8.20833 10.5818 8.15243 10.7203 8.04063 10.8321C7.92882 10.9439 7.79028 10.9998 7.625 10.9998ZM5.29167 10.9998C5.12639 10.9998 4.98785 10.9439 4.87604 10.8321C4.76424 10.7203 4.70833 10.5818 4.70833 10.4165C4.70833 10.2512 4.76424 10.1127 4.87604 10.0009C4.98785 9.88907 5.12639 9.83317 5.29167 9.83317C5.45694 9.83317 5.59549 9.88907 5.70729 10.0009C5.8191 10.1127 5.875 10.2512 5.875 10.4165C5.875 10.5818 5.8191 10.7203 5.70729 10.8321C5.59549 10.9439 5.45694 10.9998 5.29167 10.9998ZM9.95833 10.9998C9.79306 10.9998 9.65451 10.9439 9.54271 10.8321C9.4309 10.7203 9.375 10.5818 9.375 10.4165C9.375 10.2512 9.4309 10.1127 9.54271 10.0009C9.65451 9.88907 9.79306 9.83317 9.95833 9.83317C10.1236 9.83317 10.2622 9.88907 10.374 10.0009C10.4858 10.1127 10.5417 10.2512 10.5417 10.4165C10.5417 10.5818 10.4858 10.7203 10.374 10.8321C10.2622 10.9439 10.1236 10.9998 9.95833 10.9998Z" fill="#BEBEBE"/>
</g>
</svg>
