<svg width="13" height="11" viewBox="0 0 13 11" fill="none" xmlns="http://www.w3.org/2000/svg">
<path d="M5.33341 5.50016C4.69175 5.50016 4.14244 5.27169 3.6855 4.81475C3.22855 4.3578 3.00008 3.8085 3.00008 3.16683C3.00008 2.52516 3.22855 1.97586 3.6855 1.51891C4.14244 1.06197 4.69175 0.833496 5.33341 0.833496C5.97508 0.833496 6.52439 1.06197 6.98133 1.51891C7.43828 1.97586 7.66675 2.52516 7.66675 3.16683C7.66675 3.8085 7.43828 4.3578 6.98133 4.81475C6.52439 5.27169 5.97508 5.50016 5.33341 5.50016ZM0.666748 10.1668V8.5335C0.666748 8.21266 0.749387 7.91127 0.914665 7.62933C1.07994 7.34739 1.30841 7.1335 1.60008 6.98766C2.09591 6.73489 2.65494 6.521 3.27716 6.346C3.89939 6.171 4.5848 6.0835 5.33341 6.0835H5.53758C5.59591 6.0835 5.65425 6.09322 5.71258 6.11266C5.6348 6.28766 5.56918 6.46995 5.51571 6.65954C5.46223 6.84912 5.42091 7.046 5.39175 7.25016H5.33341C4.64314 7.25016 4.02335 7.33766 3.47404 7.51266C2.92473 7.68766 2.47508 7.86266 2.12508 8.03766C2.03758 8.08627 1.9671 8.15433 1.91362 8.24183C1.86015 8.32933 1.83341 8.42655 1.83341 8.5335V9.00016H5.50841C5.56675 9.20433 5.64453 9.40607 5.74175 9.60537C5.83897 9.80468 5.94591 9.99183 6.06258 10.1668H0.666748ZM8.83341 10.7502L8.65841 9.87516C8.54175 9.82655 8.43237 9.77551 8.33029 9.72204C8.22821 9.66857 8.12369 9.60294 8.01675 9.52516L7.17091 9.78766L6.58758 8.796L7.25841 8.21266C7.23897 8.07655 7.22925 7.95016 7.22925 7.8335C7.22925 7.71683 7.23897 7.59044 7.25841 7.45433L6.58758 6.871L7.17091 5.87933L8.01675 6.14183C8.12369 6.06405 8.22821 5.99843 8.33029 5.94495C8.43237 5.89148 8.54175 5.84044 8.65841 5.79183L8.83341 4.91683H10.0001L10.1751 5.79183C10.2917 5.84044 10.4011 5.89391 10.5032 5.95225C10.6053 6.01058 10.7098 6.0835 10.8167 6.171L11.6626 5.87933L12.2459 6.90016L11.5751 7.4835C11.5945 7.60016 11.6042 7.72169 11.6042 7.84808C11.6042 7.97447 11.5945 8.096 11.5751 8.21266L12.2459 8.796L11.6626 9.78766L10.8167 9.52516C10.7098 9.60294 10.6053 9.66857 10.5032 9.72204C10.4011 9.77551 10.2917 9.82655 10.1751 9.87516L10.0001 10.7502H8.83341ZM9.41675 9.00016C9.73758 9.00016 10.0122 8.88593 10.2407 8.65745C10.4692 8.42898 10.5834 8.15433 10.5834 7.8335C10.5834 7.51266 10.4692 7.23801 10.2407 7.00954C10.0122 6.78107 9.73758 6.66683 9.41675 6.66683C9.09591 6.66683 8.82126 6.78107 8.59279 7.00954C8.36432 7.23801 8.25008 7.51266 8.25008 7.8335C8.25008 8.15433 8.36432 8.42898 8.59279 8.65745C8.82126 8.88593 9.09591 9.00016 9.41675 9.00016ZM5.33341 4.3335C5.65425 4.3335 5.9289 4.21926 6.15737 3.99079C6.38585 3.76232 6.50008 3.48766 6.50008 3.16683C6.50008 2.846 6.38585 2.57134 6.15737 2.34287C5.9289 2.1144 5.65425 2.00016 5.33341 2.00016C5.01258 2.00016 4.73793 2.1144 4.50946 2.34287C4.28098 2.57134 4.16675 2.846 4.16675 3.16683C4.16675 3.48766 4.28098 3.76232 4.50946 3.99079C4.73793 4.21926 5.01258 4.3335 5.33341 4.3335Z" fill="#BEBEBE"/>
</svg>
