<svg width="17" height="17" viewBox="0 0 17 17" fill="none" xmlns="http://www.w3.org/2000/svg">
<mask id="mask0_408_1118" style="mask-type:alpha" maskUnits="userSpaceOnUse" x="0" y="0" width="17" height="17">
<rect x="0.667725" y="0.735107" width="16" height="16" fill="#D9D9D9"/>
</mask>
<g mask="url(#mask0_408_1118)">
<path d="M6.66772 12.735C6.30106 12.735 5.98717 12.6045 5.72606 12.3434C5.46495 12.0822 5.33439 11.7684 5.33439 11.4017V3.40169C5.33439 3.03503 5.46495 2.72114 5.72606 2.46003C5.98717 2.19891 6.30106 2.06836 6.66772 2.06836H12.6677C13.0344 2.06836 13.3483 2.19891 13.6094 2.46003C13.8705 2.72114 14.0011 3.03503 14.0011 3.40169V11.4017C14.0011 11.7684 13.8705 12.0822 13.6094 12.3434C13.3483 12.6045 13.0344 12.735 12.6677 12.735H6.66772ZM6.66772 11.4017H12.6677V3.40169H6.66772V11.4017ZM4.00106 15.4017C3.63439 15.4017 3.3205 15.2711 3.05939 15.01C2.79828 14.7489 2.66772 14.435 2.66772 14.0684V4.73503H4.00106V14.0684H11.3344V15.4017H4.00106Z" fill="#D9D9D9"/>
</g>
</svg>
