<svg width="17" height="17" viewBox="0 0 17 17" fill="none" xmlns="http://www.w3.org/2000/svg">
<mask id="mask0_408_1123" style="mask-type:alpha" maskUnits="userSpaceOnUse" x="0" y="0" width="17" height="17">
<rect x="0.667725" y="0.735107" width="16" height="16" fill="#D9D9D9"/>
</mask>
<g mask="url(#mask0_408_1123)">
<path d="M5.33439 14.7351C4.96772 14.7351 4.65383 14.6046 4.39272 14.3434C4.13161 14.0823 4.00106 13.7684 4.00106 13.4018V4.73511H3.33439V3.40177H6.66772V2.73511H10.6677V3.40177H14.0011V4.73511H13.3344V13.4018C13.3344 13.7684 13.2038 14.0823 12.9427 14.3434C12.6816 14.6046 12.3677 14.7351 12.0011 14.7351H5.33439ZM12.0011 4.73511H5.33439V13.4018H12.0011V4.73511ZM6.66772 12.0684H8.00106V6.06844H6.66772V12.0684ZM9.33439 12.0684H10.6677V6.06844H9.33439V12.0684Z" fill="#D9D9D9" fill-opacity="0.85"/>
</g>
</svg>
