<svg width="16" height="17" viewBox="0 0 16 17" fill="none" xmlns="http://www.w3.org/2000/svg">
<mask id="mask0_432_324" style="mask-type:alpha" maskUnits="userSpaceOnUse" x="0" y="0" width="16" height="17">
<rect y="0.5" width="16" height="16" fill="#D9D9D9"/>
</mask>
<g mask="url(#mask0_432_324)">
<path d="M3.33333 13.1667H4.28333L10.8 6.65L9.85 5.7L3.33333 12.2167V13.1667ZM2 14.5V11.6667L10.8 2.88333C10.9333 2.76111 11.0806 2.66667 11.2417 2.6C11.4028 2.53333 11.5722 2.5 11.75 2.5C11.9278 2.5 12.1 2.53333 12.2667 2.6C12.4333 2.66667 12.5778 2.76667 12.7 2.9L13.6167 3.83333C13.75 3.95556 13.8472 4.1 13.9083 4.26667C13.9694 4.43333 14 4.6 14 4.76667C14 4.94444 13.9694 5.11389 13.9083 5.275C13.8472 5.43611 13.75 5.58333 13.6167 5.71667L4.83333 14.5H2ZM10.3167 6.18333L9.85 5.7L10.8 6.65L10.3167 6.18333Z" fill="#D9D9D9" fill-opacity="0.85"/>
</g>
</svg>
