<svg width="14" height="14" viewBox="0 0 14 14" fill="none" xmlns="http://www.w3.org/2000/svg">
<path d="M9.83333 13.6666V11.6666H7.83333V10.3333H9.83333V8.33325H11.1667V10.3333H13.1667V11.6666H11.1667V13.6666H9.83333ZM1.83333 12.3333C1.46667 12.3333 1.15278 12.2027 0.891667 11.9416C0.630556 11.6805 0.5 11.3666 0.5 10.9999V1.66659C0.5 1.29992 0.630556 0.98603 0.891667 0.724919C1.15278 0.463808 1.46667 0.333252 1.83333 0.333252H11.1667C11.5333 0.333252 11.8472 0.463808 12.1083 0.724919C12.3694 0.98603 12.5 1.29992 12.5 1.66659V7.54992C12.3 7.4277 12.0889 7.3277 11.8667 7.24992C11.6444 7.17214 11.4111 7.11103 11.1667 7.06659V1.66659H1.83333V10.9999H6.5C6.5 11.2333 6.51667 11.461 6.55 11.6833C6.58333 11.9055 6.63889 12.1221 6.71667 12.3333H1.83333ZM3.83333 9.66658C4.02222 9.66658 4.18056 9.6027 4.30833 9.47492C4.43611 9.34714 4.5 9.18881 4.5 8.99992C4.5 8.81103 4.43611 8.6527 4.30833 8.52492C4.18056 8.39714 4.02222 8.33325 3.83333 8.33325C3.64444 8.33325 3.48611 8.39714 3.35833 8.52492C3.23056 8.6527 3.16667 8.81103 3.16667 8.99992C3.16667 9.18881 3.23056 9.34714 3.35833 9.47492C3.48611 9.6027 3.64444 9.66658 3.83333 9.66658ZM3.83333 6.99992C4.02222 6.99992 4.18056 6.93603 4.30833 6.80825C4.43611 6.68047 4.5 6.52214 4.5 6.33325C4.5 6.14436 4.43611 5.98603 4.30833 5.85825C4.18056 5.73047 4.02222 5.66658 3.83333 5.66658C3.64444 5.66658 3.48611 5.73047 3.35833 5.85825C3.23056 5.98603 3.16667 6.14436 3.16667 6.33325C3.16667 6.52214 3.23056 6.68047 3.35833 6.80825C3.48611 6.93603 3.64444 6.99992 3.83333 6.99992ZM3.83333 4.33325C4.02222 4.33325 4.18056 4.26936 4.30833 4.14159C4.43611 4.01381 4.5 3.85547 4.5 3.66658C4.5 3.4777 4.43611 3.31936 4.30833 3.19159C4.18056 3.06381 4.02222 2.99992 3.83333 2.99992C3.64444 2.99992 3.48611 3.06381 3.35833 3.19159C3.23056 3.31936 3.16667 3.4777 3.16667 3.66658C3.16667 3.85547 3.23056 4.01381 3.35833 4.14159C3.48611 4.26936 3.64444 4.33325 3.83333 4.33325ZM5.83333 6.99992H9.83333V5.66658H5.83333V6.99992ZM5.83333 4.33325H9.83333V2.99992H5.83333V4.33325ZM5.83333 9.66658H6.73333C6.82222 9.41103 6.93333 9.17214 7.06667 8.94992C7.2 8.7277 7.35556 8.52214 7.53333 8.33325H5.83333V9.66658Z" fill="#D9D9D9" fill-opacity="0.85"/>
</svg>
