<svg width="17" height="17" viewBox="0 0 17 17" fill="none" xmlns="http://www.w3.org/2000/svg">
<mask id="mask0_79_727" style="mask-type:alpha" maskUnits="userSpaceOnUse" x="0" y="0" width="17" height="17">
<rect x="0.0529785" y="0.90625" width="16" height="16" fill="#D9D9D9"/>
</mask>
<g mask="url(#mask0_79_727)">
<path d="M4.053 10.2396C3.68633 10.2396 3.37244 10.109 3.11133 9.84791C2.85022 9.5868 2.71967 9.27291 2.71967 8.90624C2.71967 8.53957 2.85022 8.22568 3.11133 7.96457C3.37244 7.70346 3.68633 7.57291 4.053 7.57291C4.41967 7.57291 4.73355 7.70346 4.99467 7.96457C5.25578 8.22568 5.38633 8.53957 5.38633 8.90624C5.38633 9.27291 5.25578 9.5868 4.99467 9.84791C4.73355 10.109 4.41967 10.2396 4.053 10.2396ZM8.053 10.2396C7.68633 10.2396 7.37244 10.109 7.11133 9.84791C6.85022 9.5868 6.71967 9.27291 6.71967 8.90624C6.71967 8.53957 6.85022 8.22568 7.11133 7.96457C7.37244 7.70346 7.68633 7.57291 8.053 7.57291C8.41967 7.57291 8.73355 7.70346 8.99467 7.96457C9.25578 8.22568 9.38633 8.53957 9.38633 8.90624C9.38633 9.27291 9.25578 9.5868 8.99467 9.84791C8.73355 10.109 8.41967 10.2396 8.053 10.2396ZM12.053 10.2396C11.6863 10.2396 11.3724 10.109 11.1113 9.84791C10.8502 9.5868 10.7197 9.27291 10.7197 8.90624C10.7197 8.53957 10.8502 8.22568 11.1113 7.96457C11.3724 7.70346 11.6863 7.57291 12.053 7.57291C12.4197 7.57291 12.7336 7.70346 12.9947 7.96457C13.2558 8.22568 13.3863 8.53957 13.3863 8.90624C13.3863 9.27291 13.2558 9.5868 12.9947 9.84791C12.7336 10.109 12.4197 10.2396 12.053 10.2396Z" fill="#F5F5F5"/>
</g>
</svg>
