<svg width="25" height="24" viewBox="0 0 25 24" fill="none" xmlns="http://www.w3.org/2000/svg">
<path d="M23.054 12.2332C23.054 11.3699 22.9825 10.7399 22.8278 10.0865H12.7683V13.9832H18.673C18.554 14.9515 17.9112 16.4099 16.4826 17.3898L16.4626 17.5203L19.6432 19.935L19.8636 19.9565C21.8873 18.1249 23.054 15.4298 23.054 12.2332Z" fill="#4285F4"/>
<path d="M12.7677 22.5C15.6605 22.5 18.089 21.5666 19.8629 19.9567L16.4819 17.3899C15.5772 18.0082 14.3629 18.4399 12.7677 18.4399C9.93436 18.4399 7.52962 16.6083 6.6724 14.0766L6.54675 14.0871L3.23949 16.5954L3.19624 16.7132C4.95812 20.1433 8.57716 22.5 12.7677 22.5Z" fill="#34A853"/>
<path d="M6.67303 14.0767C6.44684 13.4233 6.31594 12.7233 6.31594 12C6.31594 11.2766 6.44684 10.5766 6.66113 9.92331L6.65514 9.78417L3.30642 7.23553L3.19686 7.28661C2.4707 8.70996 2.05403 10.3083 2.05403 12C2.05403 13.6916 2.4707 15.2899 3.19686 16.7133L6.67303 14.0767Z" fill="#FBBC05"/>
<path d="M12.7677 5.55997C14.7796 5.55997 16.1367 6.41163 16.9106 7.12335L19.9344 4.23C18.0773 2.53834 15.6605 1.5 12.7677 1.5C8.5772 1.5 4.95813 3.85665 3.19624 7.28662L6.66052 9.92332C7.52965 7.39166 9.9344 5.55997 12.7677 5.55997Z" fill="#EB4335"/>
</svg>
