<svg width="17" height="17" viewBox="0 0 17 17" fill="none" xmlns="http://www.w3.org/2000/svg">
<mask id="mask0_79_681" style="mask-type:alpha" maskUnits="userSpaceOnUse" x="0" y="0" width="17" height="17">
<rect x="0.552979" y="0.626709" width="16" height="16" fill="#D9D9D9"/>
</mask>
<g mask="url(#mask0_79_681)">
<path d="M8.553 2.62671L13.8863 6.62671V14.6267H3.21967V6.62671L8.553 2.62671ZM8.553 10.6267C9.10855 10.6267 9.58078 10.4323 9.96967 10.0434C10.3586 9.65449 10.553 9.18226 10.553 8.62671C10.553 8.07115 10.3586 7.59893 9.96967 7.21004C9.58078 6.82115 9.10855 6.62671 8.553 6.62671C7.99744 6.62671 7.52522 6.82115 7.13633 7.21004C6.74744 7.59893 6.553 8.07115 6.553 8.62671C6.553 9.18226 6.74744 9.65449 7.13633 10.0434C7.52522 10.4323 7.99744 10.6267 8.553 10.6267ZM8.553 9.29338C8.36411 9.29338 8.20578 9.22949 8.078 9.10171C7.95022 8.97393 7.88633 8.8156 7.88633 8.62671C7.88633 8.43782 7.95022 8.27949 8.078 8.15171C8.20578 8.02393 8.36411 7.96004 8.553 7.96004C8.74189 7.96004 8.90022 8.02393 9.028 8.15171C9.15578 8.27949 9.21967 8.43782 9.21967 8.62671C9.21967 8.8156 9.15578 8.97393 9.028 9.10171C8.90022 9.22949 8.74189 9.29338 8.553 9.29338ZM8.553 12.6267C8.09744 12.6267 7.653 12.6823 7.21967 12.7934C6.78633 12.9045 6.37522 13.0712 5.98633 13.2934H11.1197C10.7308 13.0712 10.3197 12.9045 9.88633 12.7934C9.453 12.6823 9.00855 12.6267 8.553 12.6267ZM4.553 7.29338V12.6267C5.13078 12.1934 5.75855 11.8628 6.43633 11.635C7.11411 11.4073 7.81967 11.2934 8.553 11.2934C9.28633 11.2934 9.99189 11.4073 10.6697 11.635C11.3474 11.8628 11.9752 12.1934 12.553 12.6267V7.29338L8.553 4.29338L4.553 7.29338Z" fill="#E1DCDC"/>
</g>
</svg>
