<svg width="17" height="17" viewBox="0 0 17 17" fill="none" xmlns="http://www.w3.org/2000/svg">
<mask id="mask0_79_626" style="mask-type:alpha" maskUnits="userSpaceOnUse" x="0" y="0" width="17" height="17">
<rect x="0.552979" y="0.125" width="16" height="16" fill="#D9D9D9"/>
</mask>
<g mask="url(#mask0_79_626)">
<path d="M7.88629 11.4583H9.21962V8.79165H11.8863V7.45831H9.21962V4.79165H7.88629V7.45831H5.21962V8.79165H7.88629V11.4583ZM8.55296 14.7916C7.63074 14.7916 6.76407 14.6166 5.95296 14.2666C5.14185 13.9166 4.43629 13.4416 3.83629 12.8416C3.23629 12.2416 2.76129 11.5361 2.41129 10.725C2.06129 9.91387 1.88629 9.0472 1.88629 8.12498C1.88629 7.20276 2.06129 6.33609 2.41129 5.52498C2.76129 4.71387 3.23629 4.00831 3.83629 3.40831C4.43629 2.80831 5.14185 2.33331 5.95296 1.98331C6.76407 1.63331 7.63074 1.45831 8.55296 1.45831C9.47518 1.45831 10.3418 1.63331 11.153 1.98331C11.9641 2.33331 12.6696 2.80831 13.2696 3.40831C13.8696 4.00831 14.3446 4.71387 14.6946 5.52498C15.0446 6.33609 15.2196 7.20276 15.2196 8.12498C15.2196 9.0472 15.0446 9.91387 14.6946 10.725C14.3446 11.5361 13.8696 12.2416 13.2696 12.8416C12.6696 13.4416 11.9641 13.9166 11.153 14.2666C10.3418 14.6166 9.47518 14.7916 8.55296 14.7916ZM8.55296 13.4583C10.0418 13.4583 11.303 12.9416 12.3363 11.9083C13.3696 10.875 13.8863 9.61387 13.8863 8.12498C13.8863 6.63609 13.3696 5.37498 12.3363 4.34165C11.303 3.30831 10.0418 2.79165 8.55296 2.79165C7.06407 2.79165 5.80296 3.30831 4.76962 4.34165C3.73629 5.37498 3.21962 6.63609 3.21962 8.12498C3.21962 9.61387 3.73629 10.875 4.76962 11.9083C5.80296 12.9416 7.06407 13.4583 8.55296 13.4583Z" fill="#D9D9D9"/>
</g>
</svg>
