<svg width="14" height="14" viewBox="0 0 14 14" fill="none" xmlns="http://www.w3.org/2000/svg">
<path d="M4.41965 13.125H1.88631C1.51965 13.125 1.20576 12.9944 0.944645 12.7333C0.683534 12.4722 0.552979 12.1583 0.552979 11.7917V9.25833C1.08631 9.25833 1.55298 9.08889 1.95298 8.75C2.35298 8.41111 2.55298 7.98056 2.55298 7.45833C2.55298 6.93611 2.35298 6.50556 1.95298 6.16667C1.55298 5.82778 1.08631 5.65833 0.552979 5.65833V3.125C0.552979 2.75833 0.683534 2.44444 0.944645 2.18333C1.20576 1.92222 1.51965 1.79167 1.88631 1.79167H4.55298C4.55298 1.325 4.71409 0.930556 5.03631 0.608333C5.35853 0.286111 5.75298 0.125 6.21965 0.125C6.68631 0.125 7.08076 0.286111 7.40298 0.608333C7.7252 0.930556 7.88631 1.325 7.88631 1.79167H10.553C10.9196 1.79167 11.2335 1.92222 11.4946 2.18333C11.7558 2.44444 11.8863 2.75833 11.8863 3.125V5.79167C12.353 5.79167 12.7474 5.95278 13.0696 6.275C13.3919 6.59722 13.553 6.99167 13.553 7.45833C13.553 7.925 13.3919 8.31944 13.0696 8.64167C12.7474 8.96389 12.353 9.125 11.8863 9.125V11.7917C11.8863 12.1583 11.7558 12.4722 11.4946 12.7333C11.2335 12.9944 10.9196 13.125 10.553 13.125H8.01965C8.01965 12.5694 7.84465 12.0972 7.49465 11.7083C7.14465 11.3194 6.71965 11.125 6.21965 11.125C5.71965 11.125 5.29465 11.3194 4.94465 11.7083C4.59465 12.0972 4.41965 12.5694 4.41965 13.125ZM1.88631 11.7917H3.30298C3.56965 11.0583 3.99742 10.5417 4.58631 10.2417C5.1752 9.94167 5.71965 9.79167 6.21965 9.79167C6.71965 9.79167 7.26409 9.94167 7.85298 10.2417C8.44187 10.5417 8.86965 11.0583 9.13631 11.7917H10.553V7.79167H11.8863C11.9752 7.79167 12.053 7.75833 12.1196 7.69167C12.1863 7.625 12.2196 7.54722 12.2196 7.45833C12.2196 7.36944 12.1863 7.29167 12.1196 7.225C12.053 7.15833 11.9752 7.125 11.8863 7.125H10.553V3.125H6.55298V1.79167C6.55298 1.70278 6.51965 1.625 6.45298 1.55833C6.38631 1.49167 6.30853 1.45833 6.21965 1.45833C6.13076 1.45833 6.05298 1.49167 5.98631 1.55833C5.91965 1.625 5.88631 1.70278 5.88631 1.79167V3.125H1.88631V4.59167C2.48631 4.81389 2.96965 5.18611 3.33631 5.70833C3.70298 6.23056 3.88631 6.81389 3.88631 7.45833C3.88631 8.09167 3.70298 8.66945 3.33631 9.19167C2.96965 9.71389 2.48631 10.0917 1.88631 10.325V11.7917Z" fill="#E1DCDC"/>
</svg>
