<svg width="15" height="14" viewBox="0 0 15 14" fill="none" xmlns="http://www.w3.org/2000/svg">
<path d="M7.38053 9.91665C7.91387 9.91665 8.38887 9.75831 8.80553 9.44165C9.2222 9.12498 9.52498 8.71665 9.71387 8.21665H5.0472C5.23609 8.71665 5.53887 9.12498 5.95553 9.44165C6.3722 9.75831 6.8472 9.91665 7.38053 9.91665ZM5.71387 7.24998C5.99164 7.24998 6.22776 7.15276 6.4222 6.95831C6.61664 6.76387 6.71387 6.52776 6.71387 6.24998C6.71387 5.9722 6.61664 5.73609 6.4222 5.54165C6.22776 5.3472 5.99164 5.24998 5.71387 5.24998C5.43609 5.24998 5.19998 5.3472 5.00553 5.54165C4.81109 5.73609 4.71387 5.9722 4.71387 6.24998C4.71387 6.52776 4.81109 6.76387 5.00553 6.95831C5.19998 7.15276 5.43609 7.24998 5.71387 7.24998ZM9.0472 7.24998C9.32498 7.24998 9.56109 7.15276 9.75553 6.95831C9.94998 6.76387 10.0472 6.52776 10.0472 6.24998C10.0472 5.9722 9.94998 5.73609 9.75553 5.54165C9.56109 5.3472 9.32498 5.24998 9.0472 5.24998C8.76942 5.24998 8.53331 5.3472 8.33887 5.54165C8.14442 5.73609 8.0472 5.9722 8.0472 6.24998C8.0472 6.52776 8.14442 6.76387 8.33887 6.95831C8.53331 7.15276 8.76942 7.24998 9.0472 7.24998ZM4.46387 3.51665L6.33053 1.09998C6.46387 0.922202 6.6222 0.791646 6.80553 0.708313C6.98887 0.62498 7.18053 0.583313 7.38053 0.583313C7.58053 0.583313 7.7722 0.62498 7.95553 0.708313C8.13887 0.791646 8.2972 0.922202 8.43053 1.09998L10.2972 3.51665L13.1305 4.46665C13.4194 4.55554 13.6472 4.71942 13.8139 4.95831C13.9805 5.1972 14.0639 5.46109 14.0639 5.74998C14.0639 5.88331 14.0444 6.01665 14.0055 6.14998C13.9666 6.28331 13.9028 6.41109 13.8139 6.53331L11.9805 9.13331L12.0472 11.8666C12.0583 12.2555 11.9305 12.5833 11.6639 12.85C11.3972 13.1166 11.0861 13.25 10.7305 13.25C10.7083 13.25 10.5861 13.2333 10.3639 13.2L7.38053 12.3666L4.3972 13.2C4.34164 13.2222 4.28053 13.2361 4.21387 13.2416C4.1472 13.2472 4.08609 13.25 4.03053 13.25C3.67498 13.25 3.36387 13.1166 3.0972 12.85C2.83053 12.5833 2.70276 12.2555 2.71387 11.8666L2.78053 9.11665L0.963867 6.53331C0.874978 6.41109 0.811089 6.28331 0.772201 6.14998C0.733312 6.01665 0.713867 5.88331 0.713867 5.74998C0.713867 5.4722 0.794423 5.21387 0.955534 4.97498C1.11664 4.73609 1.34164 4.56665 1.63053 4.46665L4.46387 3.51665ZM5.28053 4.66665L2.0472 5.73331L4.11387 8.71665L4.0472 11.9L7.38053 10.9833L10.7139 11.9166L10.6472 8.71665L12.7139 5.76665L9.48053 4.66665L7.38053 1.91665L5.28053 4.66665Z" fill="#D9D9D9"/>
</svg>
