<svg width="17" height="17" viewBox="0 0 17 17" fill="none" xmlns="http://www.w3.org/2000/svg">
<rect x="0.469971" y="0.812256" width="16" height="16" rx="2" fill="#FF7A30"/>
<mask id="mask0_1251_2402" style="mask-type:alpha" maskUnits="userSpaceOnUse" x="1" y="1" width="15" height="15">
<rect x="1.46997" y="1.81226" width="14" height="14" fill="#8F4820"/>
</mask>
<g mask="url(#mask0_1251_2402)">
<path d="M8.47005 11.1456C8.93672 11.1456 9.35234 11.0071 9.71693 10.73C10.0815 10.4529 10.3464 10.0956 10.5117 9.65812H6.42839C6.59366 10.0956 6.85859 10.4529 7.22318 10.73C7.58776 11.0071 8.00339 11.1456 8.47005 11.1456ZM7.01172 8.81229C7.25477 8.81229 7.46137 8.72722 7.63151 8.55708C7.80165 8.38694 7.88672 8.18035 7.88672 7.93729C7.88672 7.69424 7.80165 7.48764 7.63151 7.3175C7.46137 7.14736 7.25477 7.06229 7.01172 7.06229C6.76866 7.06229 6.56207 7.14736 6.39193 7.3175C6.22179 7.48764 6.13672 7.69424 6.13672 7.93729C6.13672 8.18035 6.22179 8.38694 6.39193 8.55708C6.56207 8.72722 6.76866 8.81229 7.01172 8.81229ZM9.92839 8.81229C10.1714 8.81229 10.378 8.72722 10.5482 8.55708C10.7183 8.38694 10.8034 8.18035 10.8034 7.93729C10.8034 7.69424 10.7183 7.48764 10.5482 7.3175C10.378 7.14736 10.1714 7.06229 9.92839 7.06229C9.68533 7.06229 9.47873 7.14736 9.30859 7.3175C9.13845 7.48764 9.05339 7.69424 9.05339 7.93729C9.05339 8.18035 9.13845 8.38694 9.30859 8.55708C9.47873 8.72722 9.68533 8.81229 9.92839 8.81229ZM5.91797 5.54562L7.5513 3.43104C7.66797 3.27549 7.80651 3.16125 7.96693 3.08833C8.12734 3.01542 8.29505 2.97896 8.47005 2.97896C8.64505 2.97896 8.81276 3.01542 8.97318 3.08833C9.13359 3.16125 9.27214 3.27549 9.3888 3.43104L11.0221 5.54562L13.5013 6.37688C13.7541 6.45465 13.9534 6.59806 14.0992 6.80708C14.2451 7.01611 14.318 7.24701 14.318 7.49979C14.318 7.61646 14.301 7.73313 14.2669 7.84979C14.2329 7.96646 14.177 8.07826 14.0992 8.18521L12.4951 10.4602L12.5534 12.8519C12.5631 13.1922 12.4513 13.479 12.218 13.7123C11.9846 13.9456 11.7124 14.0623 11.4013 14.0623C11.3819 14.0623 11.2749 14.0477 11.0805 14.0185L8.47005 13.2894L5.85964 14.0185C5.81102 14.038 5.75755 14.0501 5.69922 14.055C5.64089 14.0599 5.58741 14.0623 5.5388 14.0623C5.22769 14.0623 4.95547 13.9456 4.72214 13.7123C4.4888 13.479 4.377 13.1922 4.38672 12.8519L4.44505 10.4456L2.85547 8.18521C2.77769 8.07826 2.72179 7.96646 2.68776 7.84979C2.65373 7.73313 2.63672 7.61646 2.63672 7.49979C2.63672 7.25674 2.7072 7.03069 2.84818 6.82167C2.98915 6.61264 3.18602 6.46438 3.4388 6.37688L5.91797 5.54562ZM6.63255 6.55188L3.80339 7.48521L5.61172 10.0956L5.55339 12.881L8.47005 12.079L11.3867 12.8956L11.3284 10.0956L13.1367 7.51438L10.3076 6.55188L8.47005 4.14562L6.63255 6.55188Z" fill="#8F4820"/>
</g>
</svg>
