<svg width="22" height="22" viewBox="0 0 22 22" fill="none" xmlns="http://www.w3.org/2000/svg">
<rect x="2.93652" y="3.76538" width="16" height="16" rx="2" fill="#B9FF42"/>
<mask id="mask0_1251_2397" style="mask-type:alpha" maskUnits="userSpaceOnUse" x="0" y="0" width="22" height="22">
<rect x="8.94385" y="0.863525" width="15" height="15" transform="rotate(34.1708 8.94385 0.863525)" fill="#D9D9D9"/>
</mask>
<g mask="url(#mask0_1251_2397)">
<path d="M7.64905 10.5602C7.36464 10.3672 7.18992 10.1006 7.12488 9.76059C7.05983 9.42057 7.12385 9.10836 7.31692 8.82395C7.50999 8.53954 7.77654 8.36482 8.11656 8.29978C8.45658 8.23473 8.7688 8.29875 9.05321 8.49182C9.33761 8.68489 9.51234 8.95144 9.57738 9.29146C9.64242 9.63148 9.57841 9.9437 9.38534 10.2281C9.19227 10.5125 8.92572 10.6872 8.5857 10.7523C8.24567 10.8173 7.93346 10.7533 7.64905 10.5602ZM6.2449 12.6287C5.38306 12.0436 4.85526 11.2446 4.66152 10.2318C4.46778 9.21897 4.66344 8.28163 5.2485 7.41979C5.83357 6.55795 6.63252 6.03016 7.64535 5.83642C8.65818 5.64268 9.59552 5.83834 10.4574 6.4234C11.0348 6.81539 11.4618 7.31303 11.7385 7.91629C12.0151 8.51956 12.1333 9.1475 12.0932 9.80012L16.6437 12.8893L17.1419 15.4937L13.2353 16.241L12.7276 14.7632L11.1668 14.8368L10.5946 13.3152L9.98695 12.9027C9.39523 13.1809 8.76798 13.3028 8.10521 13.2683C7.44243 13.2339 6.82233 13.0206 6.2449 12.6287ZM6.94697 11.5944C7.4296 11.9221 7.95352 12.0637 8.51873 12.0193C9.08393 11.975 9.57898 11.7697 10.0039 11.4034L11.6198 12.5004L12.0098 13.5394L13.6052 13.4705L14.0404 14.8046L15.6682 14.4932L15.5021 13.6251L10.7059 10.3692C10.8895 9.83913 10.8976 9.30326 10.7303 8.76158C10.5629 8.2199 10.2379 7.78525 9.75528 7.45761C9.18647 7.07147 8.56204 6.94344 7.88199 7.07352C7.20195 7.20361 6.66885 7.55306 6.28271 8.12187C5.89657 8.69069 5.76854 9.31512 5.89863 9.99516C6.02871 10.6752 6.37816 11.2083 6.94697 11.5944Z" fill="#59742D"/>
</g>
</svg>
