<svg width="17" height="17" viewBox="0 0 17 17" fill="none" xmlns="http://www.w3.org/2000/svg">
<mask id="mask0_79_621" style="mask-type:alpha" maskUnits="userSpaceOnUse" x="0" y="0" width="17" height="17">
<rect x="0.552979" y="0.125" width="16" height="16" fill="#D9D9D9"/>
</mask>
<g mask="url(#mask0_79_621)">
<path d="M13.6196 14.125L9.41965 9.925C9.08631 10.1917 8.70298 10.4028 8.26965 10.5583C7.83631 10.7139 7.3752 10.7917 6.88631 10.7917C5.6752 10.7917 4.6502 10.3722 3.81131 9.53333C2.97242 8.69444 2.55298 7.66944 2.55298 6.45833C2.55298 5.24722 2.97242 4.22222 3.81131 3.38333C4.6502 2.54444 5.6752 2.125 6.88631 2.125C8.09742 2.125 9.12242 2.54444 9.96131 3.38333C10.8002 4.22222 11.2196 5.24722 11.2196 6.45833C11.2196 6.94722 11.1419 7.40833 10.9863 7.84167C10.8308 8.275 10.6196 8.65833 10.353 8.99167L14.553 13.1917L13.6196 14.125ZM6.88631 9.45833C7.71965 9.45833 8.42798 9.16667 9.01131 8.58333C9.59465 8 9.88631 7.29167 9.88631 6.45833C9.88631 5.625 9.59465 4.91667 9.01131 4.33333C8.42798 3.75 7.71965 3.45833 6.88631 3.45833C6.05298 3.45833 5.34465 3.75 4.76131 4.33333C4.17798 4.91667 3.88631 5.625 3.88631 6.45833C3.88631 7.29167 4.17798 8 4.76131 8.58333C5.34465 9.16667 6.05298 9.45833 6.88631 9.45833Z" fill="#F3F3F3"/>
</g>
</svg>
