<svg width="15" height="14" viewBox="0 0 15 14" fill="none" xmlns="http://www.w3.org/2000/svg">
<path d="M5.59292 13.6667L5.32626 11.5333C5.18181 11.4778 5.0457 11.4111 4.91792 11.3333C4.79015 11.2556 4.66515 11.1722 4.54292 11.0833L2.55959 11.9167L0.726257 8.75L2.44292 7.45C2.43181 7.37222 2.42626 7.29722 2.42626 7.225V6.775C2.42626 6.70278 2.43181 6.62778 2.44292 6.55L0.726257 5.25L2.55959 2.08333L4.54292 2.91667C4.66515 2.82778 4.79292 2.74444 4.92626 2.66667C5.05959 2.58889 5.19292 2.52222 5.32626 2.46667L5.59292 0.333332H9.25959L9.52626 2.46667C9.6707 2.52222 9.80681 2.58889 9.93459 2.66667C10.0624 2.74444 10.1874 2.82778 10.3096 2.91667L12.2929 2.08333L14.1263 5.25L12.4096 6.55C12.4207 6.62778 12.4263 6.70278 12.4263 6.775V7.225C12.4263 7.29722 12.4151 7.37222 12.3929 7.45L14.1096 8.75L12.2763 11.9167L10.3096 11.0833C10.1874 11.1722 10.0596 11.2556 9.92626 11.3333C9.79292 11.4111 9.65959 11.4778 9.52626 11.5333L9.25959 13.6667H5.59292ZM6.75959 12.3333H8.07626L8.30959 10.5667C8.65404 10.4778 8.97348 10.3472 9.26792 10.175C9.56237 10.0028 9.83181 9.79444 10.0763 9.55L11.7263 10.2333L12.3763 9.1L10.9429 8.01667C10.9985 7.86111 11.0374 7.69722 11.0596 7.525C11.0818 7.35278 11.0929 7.17778 11.0929 7C11.0929 6.82222 11.0818 6.64722 11.0596 6.475C11.0374 6.30278 10.9985 6.13889 10.9429 5.98333L12.3763 4.9L11.7263 3.76667L10.0763 4.46667C9.83181 4.21111 9.56237 3.99722 9.26792 3.825C8.97348 3.65278 8.65404 3.52222 8.30959 3.43333L8.09292 1.66667H6.77626L6.54292 3.43333C6.19848 3.52222 5.87903 3.65278 5.58459 3.825C5.29015 3.99722 5.0207 4.20555 4.77626 4.45L3.12626 3.76667L2.47626 4.9L3.90959 5.96666C3.85404 6.13333 3.81515 6.3 3.79292 6.46666C3.7707 6.63333 3.75959 6.81111 3.75959 7C3.75959 7.17778 3.7707 7.35 3.79292 7.51667C3.81515 7.68333 3.85404 7.85 3.90959 8.01667L2.47626 9.1L3.12626 10.2333L4.77626 9.53333C5.0207 9.78889 5.29015 10.0028 5.58459 10.175C5.87903 10.3472 6.19848 10.4778 6.54292 10.5667L6.75959 12.3333ZM7.45959 9.33333C8.10404 9.33333 8.65404 9.10555 9.10959 8.65C9.56515 8.19444 9.79292 7.64444 9.79292 7C9.79292 6.35555 9.56515 5.80555 9.10959 5.35C8.65404 4.89444 8.10404 4.66667 7.45959 4.66667C6.80404 4.66667 6.25126 4.89444 5.80126 5.35C5.35126 5.80555 5.12626 6.35555 5.12626 7C5.12626 7.64444 5.35126 8.19444 5.80126 8.65C6.25126 9.10555 6.80404 9.33333 7.45959 9.33333Z" fill="#D9D9D9"/>
</svg>
