<svg width="21" height="21" viewBox="0 0 21 21" fill="none" xmlns="http://www.w3.org/2000/svg">
<mask id="mask0_236_598" style="mask-type:alpha" maskUnits="userSpaceOnUse" x="0" y="0" width="21" height="21">
<rect x="0.5" y="0.69693" width="20" height="20" fill="#D9D9D9"/>
</mask>
<g mask="url(#mask0_236_598)">
<path d="M16.3333 18.1969H4.66667C4.20833 18.1969 3.81597 18.0337 3.48958 17.7073C3.16319 17.381 3 16.9886 3 16.5303V4.8636C3 4.40526 3.16319 4.0129 3.48958 3.68651C3.81597 3.36012 4.20833 3.19693 4.66667 3.19693H16.3333C16.7917 3.19693 17.184 3.36012 17.5104 3.68651C17.8368 4.0129 18 4.40526 18 4.8636V16.5303C18 16.9886 17.8368 17.381 17.5104 17.7073C17.184 18.0337 16.7917 18.1969 16.3333 18.1969ZM4.66667 7.3636H16.3333V4.8636H4.66667V7.3636ZM6.75 9.03026H4.66667V16.5303H6.75V9.03026ZM14.25 9.03026V16.5303H16.3333V9.03026H14.25ZM12.5833 9.03026H8.41667V16.5303H12.5833V9.03026Z" fill="#E1DCDC"/>
</g>
</svg>
