<svg width="17" height="16" viewBox="0 0 17 16" fill="none" xmlns="http://www.w3.org/2000/svg">
<mask id="mask0_79_647" style="mask-type:alpha" maskUnits="userSpaceOnUse" x="0" y="0" width="17" height="16">
<rect x="0.42627" width="16" height="16" fill="#D9D9D9"/>
</mask>
<g mask="url(#mask0_79_647)">
<path d="M7.75962 10.6667V5.23333L6.02629 6.96666L5.09296 6L8.42629 2.66666L11.7596 6L10.8263 6.96666L9.09296 5.23333V10.6667H7.75962ZM4.42629 13.3333C4.05962 13.3333 3.74573 13.2028 3.48462 12.9417C3.22351 12.6806 3.09296 12.3667 3.09296 12V10H4.42629V12H12.4263V10H13.7596V12C13.7596 12.3667 13.6291 12.6806 13.368 12.9417C13.1068 13.2028 12.793 13.3333 12.4263 13.3333H4.42629Z" fill="#E1DCDC"/>
</g>
</svg>
