<svg width="14" height="14" viewBox="0 0 14 14" fill="none" xmlns="http://www.w3.org/2000/svg">
<path d="M6.66667 9.28092C7.22222 9.28092 7.69444 9.08648 8.08333 8.69759C8.47222 8.3087 8.66667 7.83648 8.66667 7.28092C8.66667 6.72537 8.47222 6.25315 8.08333 5.86426C7.69444 5.47537 7.22222 5.28092 6.66667 5.28092C6.11111 5.28092 5.63889 5.47537 5.25 5.86426C4.86111 6.25315 4.66667 6.72537 4.66667 7.28092C4.66667 7.83648 4.86111 8.3087 5.25 8.69759C5.63889 9.08648 6.11111 9.28092 6.66667 9.28092ZM6.66667 13.9476C5.74444 13.9476 4.87778 13.7726 4.06667 13.4226C3.25556 13.0726 2.55 12.5976 1.95 11.9976C1.35 11.3976 0.875 10.692 0.525 9.88092C0.175 9.06981 0 8.20315 0 7.28092C0 6.3587 0.175 5.49204 0.525 4.68092C0.875 3.86981 1.35 3.16426 1.95 2.56426C2.55 1.96426 3.25556 1.48926 4.06667 1.13926C4.87778 0.789258 5.74444 0.614258 6.66667 0.614258C7.58889 0.614258 8.45555 0.789258 9.26667 1.13926C10.0778 1.48926 10.7833 1.96426 11.3833 2.56426C11.9833 3.16426 12.4583 3.86981 12.8083 4.68092C13.1583 5.49204 13.3333 6.3587 13.3333 7.28092C13.3333 8.20315 13.1583 9.06981 12.8083 9.88092C12.4583 10.692 11.9833 11.3976 11.3833 11.9976C10.7833 12.5976 10.0778 13.0726 9.26667 13.4226C8.45555 13.7726 7.58889 13.9476 6.66667 13.9476ZM6.66667 12.6143C8.15555 12.6143 9.41667 12.0976 10.45 11.0643C11.4833 10.0309 12 8.76981 12 7.28092C12 5.79204 11.4833 4.53092 10.45 3.49759C9.41667 2.46426 8.15555 1.94759 6.66667 1.94759C5.17778 1.94759 3.91667 2.46426 2.88333 3.49759C1.85 4.53092 1.33333 5.79204 1.33333 7.28092C1.33333 8.76981 1.85 10.0309 2.88333 11.0643C3.91667 12.0976 5.17778 12.6143 6.66667 12.6143Z" fill="#AAAAAA"/>
</svg>
