<svg width="11" height="14" viewBox="0 0 11 14" fill="none" xmlns="http://www.w3.org/2000/svg">
<path d="M7.66666 6.61426V3.28092H8.99999V6.61426H7.66666ZM4.33332 11.2143C3.94443 11.1031 3.62499 10.8865 3.37499 10.5643C3.12499 10.242 2.99999 9.86981 2.99999 9.44759V3.28092H4.33332V11.2143ZM4.83332 13.9476C3.67777 13.9476 2.69443 13.542 1.88332 12.7309C1.07221 11.9198 0.666656 10.9365 0.666656 9.78092V3.61426C0.666656 2.78092 0.958323 2.07259 1.54166 1.48926C2.12499 0.905924 2.83332 0.614258 3.66666 0.614258C4.49999 0.614258 5.20832 0.905924 5.79166 1.48926C6.37499 2.07259 6.66666 2.78092 6.66666 3.61426V8.61426H5.33332V3.61426C5.32221 3.14759 5.15832 2.75315 4.84166 2.43092C4.52499 2.1087 4.13332 1.94759 3.66666 1.94759C3.19999 1.94759 2.80555 2.1087 2.48332 2.43092C2.1611 2.75315 1.99999 3.14759 1.99999 3.61426V9.78092C1.98888 10.5698 2.2611 11.2393 2.81666 11.7893C3.37221 12.3393 4.04443 12.6143 4.83332 12.6143C5.1111 12.6143 5.37499 12.5781 5.62499 12.5059C5.87499 12.4337 6.1111 12.3254 6.33332 12.1809V13.6643C6.09999 13.7531 5.85832 13.8226 5.60832 13.8726C5.35832 13.9226 5.09999 13.9476 4.83332 13.9476ZM7.66666 13.2809V11.2809H5.66666V9.94759H7.66666V7.94759H8.99999V9.94759H11V11.2809H8.99999V13.2809H7.66666Z" fill="#AAAAAA"/>
</svg>
