<svg width="12" height="14" viewBox="0 0 12 14" fill="none" xmlns="http://www.w3.org/2000/svg">
<path d="M1.33333 13.9476C0.966667 13.9476 0.652778 13.817 0.391667 13.5559C0.130556 13.2948 0 12.9809 0 12.6143V3.28092C0 2.91426 0.130556 2.60037 0.391667 2.33926C0.652778 2.07815 0.966667 1.94759 1.33333 1.94759H2V0.614258H3.33333V1.94759H8.66667V0.614258H10V1.94759H10.6667C11.0333 1.94759 11.3472 2.07815 11.6083 2.33926C11.8694 2.60037 12 2.91426 12 3.28092V12.6143C12 12.9809 11.8694 13.2948 11.6083 13.5559C11.3472 13.817 11.0333 13.9476 10.6667 13.9476H1.33333ZM1.33333 12.6143H10.6667V5.94759H1.33333V12.6143ZM1.33333 4.61426H10.6667V3.28092H1.33333V4.61426ZM6 8.61426C5.81111 8.61426 5.65278 8.55037 5.525 8.42259C5.39722 8.29481 5.33333 8.13648 5.33333 7.94759C5.33333 7.7587 5.39722 7.60037 5.525 7.47259C5.65278 7.34481 5.81111 7.28092 6 7.28092C6.18889 7.28092 6.34722 7.34481 6.475 7.47259C6.60278 7.60037 6.66667 7.7587 6.66667 7.94759C6.66667 8.13648 6.60278 8.29481 6.475 8.42259C6.34722 8.55037 6.18889 8.61426 6 8.61426ZM3.33333 8.61426C3.14444 8.61426 2.98611 8.55037 2.85833 8.42259C2.73056 8.29481 2.66667 8.13648 2.66667 7.94759C2.66667 7.7587 2.73056 7.60037 2.85833 7.47259C2.98611 7.34481 3.14444 7.28092 3.33333 7.28092C3.52222 7.28092 3.68056 7.34481 3.80833 7.47259C3.93611 7.60037 4 7.7587 4 7.94759C4 8.13648 3.93611 8.29481 3.80833 8.42259C3.68056 8.55037 3.52222 8.61426 3.33333 8.61426ZM8.66667 8.61426C8.47778 8.61426 8.31944 8.55037 8.19167 8.42259C8.06389 8.29481 8 8.13648 8 7.94759C8 7.7587 8.06389 7.60037 8.19167 7.47259C8.31944 7.34481 8.47778 7.28092 8.66667 7.28092C8.85556 7.28092 9.01389 7.34481 9.14167 7.47259C9.26945 7.60037 9.33333 7.7587 9.33333 7.94759C9.33333 8.13648 9.26945 8.29481 9.14167 8.42259C9.01389 8.55037 8.85556 8.61426 8.66667 8.61426ZM6 11.2809C5.81111 11.2809 5.65278 11.217 5.525 11.0893C5.39722 10.9615 5.33333 10.8031 5.33333 10.6143C5.33333 10.4254 5.39722 10.267 5.525 10.1393C5.65278 10.0115 5.81111 9.94759 6 9.94759C6.18889 9.94759 6.34722 10.0115 6.475 10.1393C6.60278 10.267 6.66667 10.4254 6.66667 10.6143C6.66667 10.8031 6.60278 10.9615 6.475 11.0893C6.34722 11.217 6.18889 11.2809 6 11.2809ZM3.33333 11.2809C3.14444 11.2809 2.98611 11.217 2.85833 11.0893C2.73056 10.9615 2.66667 10.8031 2.66667 10.6143C2.66667 10.4254 2.73056 10.267 2.85833 10.1393C2.98611 10.0115 3.14444 9.94759 3.33333 9.94759C3.52222 9.94759 3.68056 10.0115 3.80833 10.1393C3.93611 10.267 4 10.4254 4 10.6143C4 10.8031 3.93611 10.9615 3.80833 11.0893C3.68056 11.217 3.52222 11.2809 3.33333 11.2809ZM8.66667 11.2809C8.47778 11.2809 8.31944 11.217 8.19167 11.0893C8.06389 10.9615 8 10.8031 8 10.6143C8 10.4254 8.06389 10.267 8.19167 10.1393C8.31944 10.0115 8.47778 9.94759 8.66667 9.94759C8.85556 9.94759 9.01389 10.0115 9.14167 10.1393C9.26945 10.267 9.33333 10.4254 9.33333 10.6143C9.33333 10.8031 9.26945 10.9615 9.14167 11.0893C9.01389 11.217 8.85556 11.2809 8.66667 11.2809Z" fill="#AAAAAA"/>
</svg>
