<svg width="14" height="14" viewBox="0 0 14 14" fill="none" xmlns="http://www.w3.org/2000/svg">
<path d="M7.38334 13.5476C7.11668 13.8143 6.80001 13.9476 6.43334 13.9476C6.06668 13.9476 5.75001 13.8143 5.48334 13.5476L0.716677 8.78092C0.461121 8.52537 0.333344 8.21148 0.333344 7.83926C0.333344 7.46704 0.461121 7.15315 0.716677 6.89759L6.58334 1.01426C6.70557 0.892036 6.85001 0.794813 7.01668 0.722591C7.18334 0.650369 7.36112 0.614258 7.55001 0.614258H12.3167C12.6833 0.614258 12.9972 0.744813 13.2583 1.00592C13.5195 1.26704 13.65 1.58092 13.65 1.94759V6.71426C13.65 6.90315 13.6139 7.08092 13.5417 7.24759C13.4695 7.41426 13.3722 7.5587 13.25 7.68092L7.38334 13.5476ZM10.65 4.61426C10.9278 4.61426 11.1639 4.51704 11.3583 4.32259C11.5528 4.12815 11.65 3.89204 11.65 3.61426C11.65 3.33648 11.5528 3.10037 11.3583 2.90592C11.1639 2.71148 10.9278 2.61426 10.65 2.61426C10.3722 2.61426 10.1361 2.71148 9.94168 2.90592C9.74723 3.10037 9.65001 3.33648 9.65001 3.61426C9.65001 3.89204 9.74723 4.12815 9.94168 4.32259C10.1361 4.51704 10.3722 4.61426 10.65 4.61426ZM6.43334 12.6143L12.3167 6.71426V1.94759H7.55001L1.66668 7.84759L6.43334 12.6143Z" fill="#AAAAAA"/>
</svg>
