<svg width="17" height="16" viewBox="0 0 17 16" fill="none" xmlns="http://www.w3.org/2000/svg">
<mask id="mask0_79_673" style="mask-type:alpha" maskUnits="userSpaceOnUse" x="0" y="0" width="17" height="16">
<rect x="0.552979" width="16" height="16" fill="#D9D9D9"/>
</mask>
<g mask="url(#mask0_79_673)">
<path d="M12.553 10.5C12.553 11.6555 12.1474 12.6389 11.3363 13.45C10.5252 14.2611 9.54189 14.6666 8.38633 14.6666C7.23078 14.6666 6.24744 14.2611 5.43633 13.45C4.62522 12.6389 4.21967 11.6555 4.21967 10.5V4.33331C4.21967 3.49998 4.51133 2.79165 5.09467 2.20831C5.678 1.62498 6.38633 1.33331 7.21967 1.33331C8.053 1.33331 8.76133 1.62498 9.34467 2.20831C9.928 2.79165 10.2197 3.49998 10.2197 4.33331V10.1666C10.2197 10.6778 10.0419 11.1111 9.68633 11.4666C9.33078 11.8222 8.89744 12 8.38633 12C7.87522 12 7.44189 11.8222 7.08633 11.4666C6.73078 11.1111 6.553 10.6778 6.553 10.1666V3.99998H7.88633V10.1666C7.88633 10.3111 7.93355 10.4305 8.028 10.525C8.12244 10.6194 8.24189 10.6666 8.38633 10.6666C8.53078 10.6666 8.65022 10.6194 8.74467 10.525C8.83911 10.4305 8.88633 10.3111 8.88633 10.1666V4.33331C8.87522 3.86665 8.71133 3.4722 8.39467 3.14998C8.078 2.82776 7.68633 2.66665 7.21967 2.66665C6.753 2.66665 6.35855 2.82776 6.03633 3.14998C5.71411 3.4722 5.553 3.86665 5.553 4.33331V10.5C5.54189 11.2889 5.81411 11.9583 6.36967 12.5083C6.92522 13.0583 7.59744 13.3333 8.38633 13.3333C9.16411 13.3333 9.82522 13.0583 10.3697 12.5083C10.9141 11.9583 11.1974 11.2889 11.2197 10.5V3.99998H12.553V10.5Z" fill="white"/>
</g>
</svg>
