<svg width="21" height="21" viewBox="0 0 21 21" fill="none" xmlns="http://www.w3.org/2000/svg">
<mask id="mask0_236_624" style="mask-type:alpha" maskUnits="userSpaceOnUse" x="0" y="0" width="21" height="21">
<rect x="0.5" y="0.66095" width="20" height="20" fill="#D9D9D9"/>
</mask>
<g mask="url(#mask0_236_624)">
<path d="M4.66667 18.9943C4.20833 18.9943 3.81597 18.8311 3.48958 18.5047C3.16319 18.1783 3 17.7859 3 17.3276V5.66094C3 5.20261 3.16319 4.81025 3.48958 4.48386C3.81597 4.15747 4.20833 3.99427 4.66667 3.99427H5.5V2.32761H7.16667V3.99427H13.8333V2.32761H15.5V3.99427H16.3333C16.7917 3.99427 17.184 4.15747 17.5104 4.48386C17.8368 4.81025 18 5.20261 18 5.66094V17.3276C18 17.7859 17.8368 18.1783 17.5104 18.5047C17.184 18.8311 16.7917 18.9943 16.3333 18.9943H4.66667ZM4.66667 17.3276H16.3333V8.99427H4.66667V17.3276ZM4.66667 7.32761H16.3333V5.66094H4.66667V7.32761ZM10.5 12.3276C10.2639 12.3276 10.066 12.2477 9.90625 12.088C9.74653 11.9283 9.66667 11.7304 9.66667 11.4943C9.66667 11.2582 9.74653 11.0602 9.90625 10.9005C10.066 10.7408 10.2639 10.6609 10.5 10.6609C10.7361 10.6609 10.934 10.7408 11.0938 10.9005C11.2535 11.0602 11.3333 11.2582 11.3333 11.4943C11.3333 11.7304 11.2535 11.9283 11.0938 12.088C10.934 12.2477 10.7361 12.3276 10.5 12.3276ZM7.16667 12.3276C6.93056 12.3276 6.73264 12.2477 6.57292 12.088C6.41319 11.9283 6.33333 11.7304 6.33333 11.4943C6.33333 11.2582 6.41319 11.0602 6.57292 10.9005C6.73264 10.7408 6.93056 10.6609 7.16667 10.6609C7.40278 10.6609 7.60069 10.7408 7.76042 10.9005C7.92014 11.0602 8 11.2582 8 11.4943C8 11.7304 7.92014 11.9283 7.76042 12.088C7.60069 12.2477 7.40278 12.3276 7.16667 12.3276ZM13.8333 12.3276C13.5972 12.3276 13.3993 12.2477 13.2396 12.088C13.0799 11.9283 13 11.7304 13 11.4943C13 11.2582 13.0799 11.0602 13.2396 10.9005C13.3993 10.7408 13.5972 10.6609 13.8333 10.6609C14.0694 10.6609 14.2674 10.7408 14.4271 10.9005C14.5868 11.0602 14.6667 11.2582 14.6667 11.4943C14.6667 11.7304 14.5868 11.9283 14.4271 12.088C14.2674 12.2477 14.0694 12.3276 13.8333 12.3276ZM10.5 15.6609C10.2639 15.6609 10.066 15.5811 9.90625 15.4214C9.74653 15.2616 9.66667 15.0637 9.66667 14.8276C9.66667 14.5915 9.74653 14.3936 9.90625 14.2339C10.066 14.0741 10.2639 13.9943 10.5 13.9943C10.7361 13.9943 10.934 14.0741 11.0938 14.2339C11.2535 14.3936 11.3333 14.5915 11.3333 14.8276C11.3333 15.0637 11.2535 15.2616 11.0938 15.4214C10.934 15.5811 10.7361 15.6609 10.5 15.6609ZM7.16667 15.6609C6.93056 15.6609 6.73264 15.5811 6.57292 15.4214C6.41319 15.2616 6.33333 15.0637 6.33333 14.8276C6.33333 14.5915 6.41319 14.3936 6.57292 14.2339C6.73264 14.0741 6.93056 13.9943 7.16667 13.9943C7.40278 13.9943 7.60069 14.0741 7.76042 14.2339C7.92014 14.3936 8 14.5915 8 14.8276C8 15.0637 7.92014 15.2616 7.76042 15.4214C7.60069 15.5811 7.40278 15.6609 7.16667 15.6609ZM13.8333 15.6609C13.5972 15.6609 13.3993 15.5811 13.2396 15.4214C13.0799 15.2616 13 15.0637 13 14.8276C13 14.5915 13.0799 14.3936 13.2396 14.2339C13.3993 14.0741 13.5972 13.9943 13.8333 13.9943C14.0694 13.9943 14.2674 14.0741 14.4271 14.2339C14.5868 14.3936 14.6667 14.5915 14.6667 14.8276C14.6667 15.0637 14.5868 15.2616 14.4271 15.4214C14.2674 15.5811 14.0694 15.6609 13.8333 15.6609Z" fill="#E1DCDC"/>
</g>
</svg>
