<svg width="21" height="21" viewBox="0 0 21 21" fill="none" xmlns="http://www.w3.org/2000/svg">
<mask id="mask0_236_613" style="mask-type:alpha" maskUnits="userSpaceOnUse" x="0" y="0" width="21" height="21">
<rect x="0.5" y="0.312256" width="20" height="20" fill="#D9D9D9"/>
</mask>
<g mask="url(#mask0_236_613)">
<path d="M8 16.1456V14.4789H18V16.1456H8ZM8 11.1456V9.47893H18V11.1456H8ZM8 6.1456V4.47893H18V6.1456H8ZM4.66667 16.9789C4.20833 16.9789 3.81597 16.8157 3.48958 16.4893C3.16319 16.163 3 15.7706 3 15.3123C3 14.8539 3.16319 14.4616 3.48958 14.1352C3.81597 13.8088 4.20833 13.6456 4.66667 13.6456C5.125 13.6456 5.51736 13.8088 5.84375 14.1352C6.17014 14.4616 6.33333 14.8539 6.33333 15.3123C6.33333 15.7706 6.17014 16.163 5.84375 16.4893C5.51736 16.8157 5.125 16.9789 4.66667 16.9789ZM4.66667 11.9789C4.20833 11.9789 3.81597 11.8157 3.48958 11.4893C3.16319 11.163 3 10.7706 3 10.3123C3 9.85393 3.16319 9.46157 3.48958 9.13518C3.81597 8.80879 4.20833 8.6456 4.66667 8.6456C5.125 8.6456 5.51736 8.80879 5.84375 9.13518C6.17014 9.46157 6.33333 9.85393 6.33333 10.3123C6.33333 10.7706 6.17014 11.163 5.84375 11.4893C5.51736 11.8157 5.125 11.9789 4.66667 11.9789ZM4.66667 6.97893C4.20833 6.97893 3.81597 6.81574 3.48958 6.48935C3.16319 6.16296 3 5.7706 3 5.31227C3 4.85393 3.16319 4.46157 3.48958 4.13518C3.81597 3.80879 4.20833 3.6456 4.66667 3.6456C5.125 3.6456 5.51736 3.80879 5.84375 4.13518C6.17014 4.46157 6.33333 4.85393 6.33333 5.31227C6.33333 5.7706 6.17014 6.16296 5.84375 6.48935C5.51736 6.81574 5.125 6.97893 4.66667 6.97893Z" fill="#E1DCDC"/>
</g>
</svg>
