<svg width="21" height="21" viewBox="0 0 21 21" fill="none" xmlns="http://www.w3.org/2000/svg">
<mask id="mask0_236_619" style="mask-type:alpha" maskUnits="userSpaceOnUse" x="0" y="0" width="21" height="21">
<rect x="0.5" y="0.0908203" width="20" height="20" fill="#D9D9D9"/>
</mask>
<g mask="url(#mask0_236_619)">
<path d="M3.00001 15.9242C2.54168 15.9242 2.14932 15.761 1.82293 15.4346C1.49654 15.1082 1.33334 14.7158 1.33334 14.2575V5.92416C1.33334 5.46583 1.49654 5.07346 1.82293 4.74708C2.14932 4.42069 2.54168 4.25749 3.00001 4.25749H11.3333C11.7917 4.25749 12.184 4.42069 12.5104 4.74708C12.8368 5.07346 13 5.46583 13 5.92416V14.2575C13 14.7158 12.8368 15.1082 12.5104 15.4346C12.184 15.761 11.7917 15.9242 11.3333 15.9242H3.00001ZM15.5 9.25749C15.2639 9.25749 15.066 9.17763 14.9063 9.01791C14.7465 8.85819 14.6667 8.66027 14.6667 8.42416V5.09083C14.6667 4.85471 14.7465 4.6568 14.9063 4.49708C15.066 4.33735 15.2639 4.25749 15.5 4.25749H18.8333C19.0695 4.25749 19.2674 4.33735 19.4271 4.49708C19.5868 4.6568 19.6667 4.85471 19.6667 5.09083V8.42416C19.6667 8.66027 19.5868 8.85819 19.4271 9.01791C19.2674 9.17763 19.0695 9.25749 18.8333 9.25749H15.5ZM16.3333 7.59083H18V5.92416H16.3333V7.59083ZM3.00001 14.2575H11.3333V5.92416H3.00001V14.2575ZM3.83334 12.5908H10.5L8.31251 9.67416L6.75001 11.7575L5.60418 10.2367L3.83334 12.5908ZM15.5 15.9242C15.2639 15.9242 15.066 15.8443 14.9063 15.6846C14.7465 15.5249 14.6667 15.3269 14.6667 15.0908V11.7575C14.6667 11.5214 14.7465 11.3235 14.9063 11.1637C15.066 11.004 15.2639 10.9242 15.5 10.9242H18.8333C19.0695 10.9242 19.2674 11.004 19.4271 11.1637C19.5868 11.3235 19.6667 11.5214 19.6667 11.7575V15.0908C19.6667 15.3269 19.5868 15.5249 19.4271 15.6846C19.2674 15.8443 19.0695 15.9242 18.8333 15.9242H15.5ZM16.3333 14.2575H18V12.5908H16.3333V14.2575Z" fill="#E1DCDC"/>
</g>
</svg>
