<svg width="21" height="21" viewBox="0 0 21 21" fill="none" xmlns="http://www.w3.org/2000/svg">
<mask id="mask0_236_608" style="mask-type:alpha" maskUnits="userSpaceOnUse" x="0" y="0" width="21" height="21">
<rect x="0.5" y="0.69693" width="20" height="20" fill="#D9D9D9"/>
</mask>
<g mask="url(#mask0_236_608)">
<path d="M6.33333 17.3636V8.1761C6.33333 7.71776 6.5 7.32888 6.83333 7.00943C7.16667 6.68999 7.5625 6.53026 8.02083 6.53026H17.1667C17.625 6.53026 18.0174 6.69346 18.3438 7.01985C18.6701 7.34624 18.8333 7.7386 18.8333 8.19693V14.8636L14.6667 19.0303H8C7.54167 19.0303 7.14931 18.8671 6.82292 18.5407C6.49653 18.2143 6.33333 17.8219 6.33333 17.3636ZM2.1875 5.90526C2.10417 5.44693 2.19445 5.03374 2.45833 4.66568C2.72222 4.29763 3.08333 4.07193 3.54167 3.9886L12.5833 2.38443C13.0417 2.3011 13.4549 2.39138 13.8229 2.65526C14.191 2.91915 14.4167 3.28026 14.5 3.7386L14.7083 4.8636H13L12.8542 4.03026L3.83333 5.63443L4.66667 10.3428V16.1553C4.44445 16.0303 4.25347 15.8636 4.09375 15.6553C3.93403 15.4469 3.83333 15.2108 3.79167 14.9469L2.1875 5.90526ZM8 8.19693V17.3636H13.8333V14.0303H17.1667V8.19693H8Z" fill="#D9D9D9"/>
</g>
</svg>
