<svg width="21" height="21" viewBox="0 0 21 21" fill="none" xmlns="http://www.w3.org/2000/svg">
<mask id="mask0_236_603" style="mask-type:alpha" maskUnits="userSpaceOnUse" x="0" y="0" width="21" height="21">
<rect x="0.5" y="0.504578" width="20" height="20" fill="#D9D9D9"/>
</mask>
<g mask="url(#mask0_236_603)">
<path d="M3 16.3379V4.67124C3 4.21291 3.16319 3.82055 3.48958 3.49416C3.81597 3.16777 4.20833 3.00458 4.66667 3.00458H16.3333C16.7917 3.00458 17.184 3.16777 17.5104 3.49416C17.8368 3.82055 18 4.21291 18 4.67124V16.3379C18 16.7962 17.8368 17.1886 17.5104 17.515C17.184 17.8414 16.7917 18.0046 16.3333 18.0046H4.66667C4.20833 18.0046 3.81597 17.8414 3.48958 17.515C3.16319 17.1886 3 16.7962 3 16.3379ZM4.66667 8.00458H16.3333V4.67124H4.66667V8.00458ZM9.10417 12.1712H11.8958V9.67124H9.10417V12.1712ZM9.10417 16.3379H11.8958V13.8379H9.10417V16.3379ZM4.66667 12.1712H7.4375V9.67124H4.66667V12.1712ZM13.5625 12.1712H16.3333V9.67124H13.5625V12.1712ZM4.66667 16.3379H7.4375V13.8379H4.66667V16.3379ZM13.5625 16.3379H16.3333V13.8379H13.5625V16.3379Z" fill="#D9D9D9"/>
</g>
</svg>
