<svg width="22" height="25" viewBox="0 0 22 25" fill="none" xmlns="http://www.w3.org/2000/svg">
<path d="M18.3806 5.23438V19.2343C18.3806 20.3389 17.5286 21.2344 16.4777 21.2344H12.9097C12.647 21.2344 12.4341 21.0106 12.4341 20.7343V14.7343H14.6605C14.8865 14.7345 15.0814 14.5672 15.1266 14.3344L15.4692 12.5344C15.4833 12.4617 15.466 12.3861 15.4219 12.3281C15.3777 12.2703 15.3114 12.2358 15.2408 12.2344H12.4341V8.98438C12.4341 8.84631 12.5406 8.73437 12.6719 8.73437H15.0505C15.3133 8.73437 15.5263 8.51052 15.5263 8.23438V6.73438C15.5263 6.45823 15.3133 6.23438 15.0505 6.23438H12.6719C11.0955 6.23438 9.8176 7.57752 9.8176 9.23438V12.2344H8.64734C8.3846 12.2344 8.17163 12.4582 8.17163 12.7344V14.2344C8.17163 14.5105 8.3846 14.7343 8.64734 14.7343H9.8176V20.7343C9.8176 21.0106 9.60467 21.2344 9.34184 21.2344H3.15753C2.10659 21.2344 1.25464 20.3389 1.25464 19.2343V5.23438C1.25464 4.1298 2.10659 3.23438 3.15753 3.23438H16.4777C17.5286 3.23438 18.3806 4.1298 18.3806 5.23438Z" fill="white"/>
</svg>
