<svg width="24" height="24" viewBox="0 0 24 24" fill="none" xmlns="http://www.w3.org/2000/svg">
<path fill-rule="evenodd" clip-rule="evenodd" d="M8.67933 3H16.2908C18.9182 3 21.0481 5.23858 21.0481 8V16C21.0481 18.7614 18.9182 21 16.2908 21H8.67933C6.05199 21 3.92212 18.7614 3.92212 16V8C3.92212 5.23858 6.05199 3 8.67933 3ZM17.0087 8.24844C17.5342 8.24844 17.9601 7.80072 17.9601 7.24843C17.9601 6.69616 17.5342 6.24844 17.0087 6.24844C16.4832 6.24844 16.0572 6.69616 16.0572 7.24843C16.0572 7.80072 16.4832 8.24844 17.0087 8.24844ZM12.4861 7.50001C10.1215 7.50001 8.20459 9.51473 8.20459 12C8.20459 14.4853 10.1215 16.5 12.4861 16.5C14.8506 16.5 16.7676 14.4853 16.7676 12C16.7701 10.8057 16.3198 9.65958 15.5164 8.81509C14.7128 7.9706 13.6224 7.49735 12.4861 7.50001ZM9.8695 11.9984C9.8695 13.5173 11.0409 14.7485 12.486 14.7485C13.931 14.7485 15.1024 13.5173 15.1024 11.9984C15.1024 10.4797 13.931 9.24844 12.486 9.24844C11.0409 9.24844 9.8695 10.4797 9.8695 11.9984Z" fill="white"/>
</svg>
