<svg width="22" height="25" viewBox="0 0 22 25" fill="none" xmlns="http://www.w3.org/2000/svg">
<path fill-rule="evenodd" clip-rule="evenodd" d="M18.7313 19.833C18.7313 20.8194 18.0424 21.6448 17.1196 21.8544V21.9014H16.7952C16.7499 21.9044 16.7044 21.9059 16.6584 21.9059H12.7718C12.7487 21.9059 12.726 21.9044 12.7036 21.9014H8.9533C8.931 21.9044 8.90825 21.9059 8.88515 21.9059H2.14832C1.00349 21.9059 0.0754395 20.9778 0.0754395 19.833V5.32288C0.0754395 4.17805 1.00349 3.25 2.14832 3.25H16.6584C17.8032 3.25 18.7313 4.17805 18.7313 5.32288V19.833ZM13.5243 8.52966C13.6108 8.58605 13.6999 8.63808 13.7916 8.68552C14.3879 8.98338 14.9704 9.07408 15.2572 9.0429V11.3622C15.2572 11.3622 14.4386 11.3282 13.8309 11.1667C12.9841 10.9397 12.4412 10.5911 12.4412 10.5911C12.4412 10.5911 12.0643 10.3414 12.0361 10.3244V15.1172C12.0361 15.3837 11.9657 16.0503 11.7546 16.606C11.5697 17.0812 11.3053 17.5214 10.9727 17.9077C10.9727 17.9077 10.4522 18.5542 9.53801 18.988C8.77597 19.3498 8.09805 19.3697 7.82879 19.3775C7.80681 19.3781 7.78753 19.3787 7.77116 19.3794C7.77116 19.3794 6.51944 19.4299 5.39048 18.6612L5.38483 18.6555V18.6612C5.00314 18.3945 4.66277 18.0727 4.37467 17.7064C4.0174 17.2499 3.79818 16.7083 3.7416 16.5496V16.5439C3.65165 16.2744 3.46297 15.6223 3.49125 14.9929C3.53623 13.884 3.90765 13.2007 4.00609 13.0307C4.26478 12.5644 4.6027 12.1469 5.00464 11.797C5.46337 11.4117 5.9968 11.1259 6.57131 10.9575C7.14582 10.7891 7.74892 10.7419 8.34258 10.8187L8.33974 13.1976C8.14419 13.1338 7.93979 13.1013 7.73411 13.1014C6.64758 13.1014 5.76698 13.9891 5.76698 15.0853C5.76698 16.1815 6.64758 17.0691 7.73411 17.0691C8.0724 17.0695 8.40496 16.9816 8.699 16.8141C8.98113 16.6535 9.21954 16.4259 9.39326 16.1513C9.56699 15.8768 9.6707 15.5636 9.69529 15.2395V15.2344C9.69671 15.2276 9.6967 15.2207 9.6967 15.2143C9.69698 15.209 9.69732 15.2042 9.69764 15.1993C9.69832 15.1894 9.69896 15.1799 9.69896 15.17C9.70406 15.0516 9.70406 14.9317 9.70406 14.8104V5.77614H12.0361C12.0324 5.77614 12.0081 6.00002 12.0669 6.34605H12.0641C12.1345 6.76294 12.3258 7.35836 12.8378 7.94528C13.0424 8.16695 13.2729 8.36315 13.5243 8.52966Z" fill="white"/>
</svg>
