<svg width="25" height="25" viewBox="0 0 25 25" fill="none" xmlns="http://www.w3.org/2000/svg">
<g clip-path="url(#clip0_1063_26)">
<g clip-path="url(#clip1_1063_26)">
<path d="M22.1856 6.69836C21.6946 7.3867 21.1011 7.98716 20.4281 8.47653C20.4281 8.65634 20.4281 8.83616 20.4281 9.02596C20.4335 12.2914 19.1924 15.4225 16.9833 17.7174C14.774 20.0122 11.7815 21.2789 8.6764 21.2334C6.88128 21.2397 5.10915 20.8089 3.49884 19.9747C3.41201 19.9348 3.35601 19.8445 3.35633 19.7449V19.635C3.35633 19.4916 3.46691 19.3753 3.60334 19.3753C5.36789 19.3141 7.06949 18.6712 8.46739 17.5372C6.87023 17.5033 5.43319 16.5089 4.77185 14.9799C4.73845 14.8963 4.74885 14.8005 4.79929 14.727C4.84974 14.6536 4.93295 14.6131 5.01885 14.6202C5.50426 14.6715 5.99453 14.6241 6.46287 14.4803C4.69973 14.0957 3.37492 12.5572 3.18533 10.6743C3.17859 10.5839 3.2171 10.4964 3.28695 10.4434C3.3568 10.3903 3.4479 10.3794 3.52733 10.4145C4.00048 10.634 4.51124 10.7495 5.02835 10.7542C3.48342 9.68841 2.81612 7.6613 3.40383 5.81926C3.46449 5.64027 3.61025 5.50804 3.78752 5.47116C3.96479 5.4343 4.14744 5.49821 4.26834 5.63944C6.35313 7.97152 9.21766 9.36119 12.2579 9.51545C12.1801 9.18885 12.1418 8.8532 12.1439 8.51649C12.1724 6.75093 13.2118 5.17814 14.7755 4.53443C16.3392 3.89073 18.1177 4.3035 19.2785 5.57951C20.0698 5.42108 20.8348 5.14174 21.549 4.75036C21.6013 4.71603 21.6678 4.71603 21.7201 4.75036C21.7527 4.80538 21.7527 4.87516 21.7201 4.93018C21.374 5.76292 20.7896 6.46137 20.048 6.92812C20.6974 6.84897 21.3353 6.68798 21.9481 6.44861C21.9997 6.4117 22.0675 6.4117 22.1191 6.44861C22.1623 6.4694 22.1946 6.50914 22.2074 6.55726C22.2203 6.60538 22.2123 6.65699 22.1856 6.69836Z" fill="white"/>
</g>
</g>
<defs>
<clipPath id="clip0_1063_26">
<rect width="24" height="24" fill="white" transform="translate(0.842529 0.234375)"/>
</clipPath>
<clipPath id="clip1_1063_26">
<rect width="30.875" height="29.375" fill="white" transform="translate(0.842529 0.234375)"/>
</clipPath>
</defs>
</svg>
