<svg width="25" height="25" viewBox="0 0 25 25" fill="none" xmlns="http://www.w3.org/2000/svg">
<g clip-path="url(#clip0_1063_34)">
<g clip-path="url(#clip1_1063_34)">
<path fill-rule="evenodd" clip-rule="evenodd" d="M18.025 4.57439L19.4142 4.72439C21.0587 4.91976 22.2936 6.39511 22.2685 8.13439V16.3344C22.2936 18.0737 21.0587 19.549 19.4142 19.7445L18.0821 19.8945C13.9259 20.3443 9.73654 20.3443 5.58023 19.8945L4.19113 19.7445C2.54657 19.549 1.31164 18.0737 1.3368 16.3344V8.13439C1.31164 6.39511 2.54657 4.91976 4.19113 4.72439L5.52314 4.57439C9.67946 4.12441 13.8688 4.12441 18.025 4.57439ZM10.9559 15.4543L14.6569 12.8544H14.714C14.9135 12.7179 15.0338 12.4846 15.0338 12.2344C15.0338 11.9842 14.9135 11.751 14.714 11.6144L11.013 9.01438C10.7944 8.85913 10.5123 8.84323 10.2792 8.97304C10.0462 9.10284 9.90024 9.35716 9.89977 9.63437V14.8344C9.91204 15.0924 10.0498 15.3257 10.2645 15.4517C10.4791 15.5777 10.7404 15.5788 10.9559 15.4543Z" fill="white"/>
</g>
</g>
<defs>
<clipPath id="clip0_1063_34">
<rect width="24" height="24" fill="white" transform="translate(0.0612793 0.234375)"/>
</clipPath>
<clipPath id="clip1_1063_34">
<rect width="30.875" height="24" fill="white" transform="translate(0.0612793 0.234375)"/>
</clipPath>
</defs>
</svg>
