<svg width="16" height="16" viewBox="0 0 16 16" fill="none" xmlns="http://www.w3.org/2000/svg">
<mask id="mask0_555_119" style="mask-type:alpha" maskUnits="userSpaceOnUse" x="0" y="0" width="16" height="16">
<rect width="16" height="16" fill="#D9D9D9"/>
</mask>
<g mask="url(#mask0_555_119)">
<path d="M5.33335 12H10.6667V10.6667H5.33335V12ZM5.33335 9.33333H10.6667V8H5.33335V9.33333ZM4.00002 14.6667C3.63335 14.6667 3.31946 14.5361 3.05835 14.275C2.79724 14.0139 2.66669 13.7 2.66669 13.3333V2.66667C2.66669 2.3 2.79724 1.98611 3.05835 1.725C3.31946 1.46389 3.63335 1.33333 4.00002 1.33333H9.33335L13.3334 5.33333V13.3333C13.3334 13.7 13.2028 14.0139 12.9417 14.275C12.6806 14.5361 12.3667 14.6667 12 14.6667H4.00002ZM8.66669 6V2.66667H4.00002V13.3333H12V6H8.66669Z" fill="#BCBCBC"/>
</g>
</svg>
