<svg width="16" height="17" viewBox="0 0 16 17" fill="none" xmlns="http://www.w3.org/2000/svg">
<mask id="mask0_1393_5178" style="mask-type:alpha" maskUnits="userSpaceOnUse" x="0" y="0" width="16" height="17">
<rect y="0.255371" width="16" height="16" fill="#D9D9D9"/>
</mask>
<g mask="url(#mask0_1393_5178)">
<path d="M6 12.2554C5.63333 12.2554 5.31944 12.1248 5.05833 11.8637C4.79722 11.6026 4.66667 11.2887 4.66667 10.922V2.92202C4.66667 2.55535 4.79722 2.24146 5.05833 1.98035C5.31944 1.71924 5.63333 1.58868 6 1.58868H12C12.3667 1.58868 12.6806 1.71924 12.9417 1.98035C13.2028 2.24146 13.3333 2.55535 13.3333 2.92202V10.922C13.3333 11.2887 13.2028 11.6026 12.9417 11.8637C12.6806 12.1248 12.3667 12.2554 12 12.2554H6ZM6 10.922H12V2.92202H6V10.922ZM3.33333 14.922C2.96667 14.922 2.65278 14.7915 2.39167 14.5304C2.13056 14.2692 2 13.9553 2 13.5887V4.25535H3.33333V13.5887H10.6667V14.922H3.33333Z" fill="#F1EFEF"/>
</g>
</svg>
