<svg width="14" height="8" viewBox="0 0 14 8" fill="none" xmlns="http://www.w3.org/2000/svg">
<path d="M6.33334 7.58872H3.66667C2.74445 7.58872 1.95834 7.26372 1.30834 6.61372C0.658336 5.96372 0.333336 5.17761 0.333336 4.25539C0.333336 3.33317 0.658336 2.54706 1.30834 1.89706C1.95834 1.24706 2.74445 0.922058 3.66667 0.922058H6.33334V2.25539H3.66667C3.11111 2.25539 2.63889 2.44984 2.25 2.83872C1.86111 3.22761 1.66667 3.69984 1.66667 4.25539C1.66667 4.81095 1.86111 5.28317 2.25 5.67206C2.63889 6.06095 3.11111 6.25539 3.66667 6.25539H6.33334V7.58872ZM4.33334 4.92206V3.58872H9.66667V4.92206H4.33334ZM7.66667 7.58872V6.25539H10.3333C10.8889 6.25539 11.3611 6.06095 11.75 5.67206C12.1389 5.28317 12.3333 4.81095 12.3333 4.25539C12.3333 3.69984 12.1389 3.22761 11.75 2.83872C11.3611 2.44984 10.8889 2.25539 10.3333 2.25539H7.66667V0.922058H10.3333C11.2556 0.922058 12.0417 1.24706 12.6917 1.89706C13.3417 2.54706 13.6667 3.33317 13.6667 4.25539C13.6667 5.17761 13.3417 5.96372 12.6917 6.61372C12.0417 7.26372 11.2556 7.58872 10.3333 7.58872H7.66667Z" fill="#F1EFEF"/>
</svg>
